<svg xmlns="http://www.w3.org/2000/svg" width="868.344" height="664.186" viewBox="0 0 868.344 664.186">
  <g id="undraw_statistic_chart_38b6_1_" data-name="undraw_statistic_chart_38b6 (1)" transform="translate(0 -0.001)">
    <circle id="Ellipse_2" data-name="Ellipse 2" cx="7.707" cy="7.707" r="7.707" transform="translate(35.201 0.001)" fill="#e6e6e6"/>
    <circle id="Ellipse_3" data-name="Ellipse 3" cx="7.707" cy="7.707" r="7.707" transform="translate(74.215 0.001)" fill="#e6e6e6"/>
    <circle id="Ellipse_4" data-name="Ellipse 4" cx="7.707" cy="7.707" r="7.707" transform="translate(113.23 0.001)" fill="#e6e6e6"/>
    <circle id="Ellipse_5" data-name="Ellipse 5" cx="7.707" cy="7.707" r="7.707" transform="translate(152.245 0.001)" fill="#e6e6e6"/>
    <circle id="Ellipse_6" data-name="Ellipse 6" cx="7.707" cy="7.707" r="7.707" transform="translate(191.26 0.001)" fill="#e6e6e6"/>
    <circle id="Ellipse_7" data-name="Ellipse 7" cx="7.707" cy="7.707" r="7.707" transform="translate(230.274 0.001)" fill="#e6e6e6"/>
    <circle id="Ellipse_8" data-name="Ellipse 8" cx="7.707" cy="7.707" r="7.707" transform="translate(269.289 0.001)" fill="#e6e6e6"/>
    <circle id="Ellipse_9" data-name="Ellipse 9" cx="7.707" cy="7.707" r="7.707" transform="translate(308.303 0.001)" fill="#e6e6e6"/>
    <circle id="Ellipse_10" data-name="Ellipse 10" cx="7.707" cy="7.707" r="7.707" transform="translate(347.318 0.001)" fill="#e6e6e6"/>
    <circle id="Ellipse_11" data-name="Ellipse 11" cx="7.707" cy="7.707" r="7.707" transform="translate(386.333 0.001)" fill="#e6e6e6"/>
    <circle id="Ellipse_12" data-name="Ellipse 12" cx="7.707" cy="7.707" r="7.707" transform="translate(35.201 39.505)" fill="#e6e6e6"/>
    <circle id="Ellipse_13" data-name="Ellipse 13" cx="7.707" cy="7.707" r="7.707" transform="translate(74.215 39.505)" fill="#e6e6e6"/>
    <circle id="Ellipse_14" data-name="Ellipse 14" cx="7.707" cy="7.707" r="7.707" transform="translate(113.23 39.505)" fill="#e6e6e6"/>
    <circle id="Ellipse_15" data-name="Ellipse 15" cx="7.707" cy="7.707" r="7.707" transform="translate(152.245 39.505)" fill="#3ebfbb"/>
    <circle id="Ellipse_16" data-name="Ellipse 16" cx="7.707" cy="7.707" r="7.707" transform="translate(191.26 39.505)" fill="#e6e6e6"/>
    <circle id="Ellipse_17" data-name="Ellipse 17" cx="7.707" cy="7.707" r="7.707" transform="translate(230.274 39.505)" fill="#e6e6e6"/>
    <circle id="Ellipse_18" data-name="Ellipse 18" cx="7.707" cy="7.707" r="7.707" transform="translate(269.289 39.505)" fill="#e6e6e6"/>
    <circle id="Ellipse_19" data-name="Ellipse 19" cx="7.707" cy="7.707" r="7.707" transform="translate(308.303 39.505)" fill="#e6e6e6"/>
    <circle id="Ellipse_20" data-name="Ellipse 20" cx="7.707" cy="7.707" r="7.707" transform="translate(347.318 39.505)" fill="#e6e6e6"/>
    <circle id="Ellipse_21" data-name="Ellipse 21" cx="7.707" cy="7.707" r="7.707" transform="translate(386.333 39.505)" fill="#e6e6e6"/>
    <circle id="Ellipse_22" data-name="Ellipse 22" cx="7.707" cy="7.707" r="7.707" transform="translate(35.201 79.01)" fill="#e6e6e6"/>
    <circle id="Ellipse_23" data-name="Ellipse 23" cx="7.707" cy="7.707" r="7.707" transform="translate(74.215 79.01)" fill="#e6e6e6"/>
    <circle id="Ellipse_24" data-name="Ellipse 24" cx="7.707" cy="7.707" r="7.707" transform="translate(113.23 79.01)" fill="#e6e6e6"/>
    <circle id="Ellipse_25" data-name="Ellipse 25" cx="7.707" cy="7.707" r="7.707" transform="translate(152.245 79.01)" fill="#e6e6e6"/>
    <circle id="Ellipse_26" data-name="Ellipse 26" cx="7.707" cy="7.707" r="7.707" transform="translate(191.26 79.01)" fill="#e6e6e6"/>
    <circle id="Ellipse_27" data-name="Ellipse 27" cx="7.707" cy="7.707" r="7.707" transform="translate(230.274 79.01)" fill="#e6e6e6"/>
    <circle id="Ellipse_28" data-name="Ellipse 28" cx="7.707" cy="7.707" r="7.707" transform="translate(269.289 79.01)" fill="#e6e6e6"/>
    <circle id="Ellipse_29" data-name="Ellipse 29" cx="7.707" cy="7.707" r="7.707" transform="translate(308.303 79.01)" fill="#e6e6e6"/>
    <circle id="Ellipse_30" data-name="Ellipse 30" cx="7.707" cy="7.707" r="7.707" transform="translate(347.318 79.01)" fill="#e6e6e6"/>
    <circle id="Ellipse_31" data-name="Ellipse 31" cx="7.707" cy="7.707" r="7.707" transform="translate(386.333 79.01)" fill="#e6e6e6"/>
    <circle id="Ellipse_32" data-name="Ellipse 32" cx="7.707" cy="7.707" r="7.707" transform="translate(35.201 118.514)" fill="#e6e6e6"/>
    <circle id="Ellipse_33" data-name="Ellipse 33" cx="7.707" cy="7.707" r="7.707" transform="translate(74.215 118.514)" fill="#e6e6e6"/>
    <circle id="Ellipse_34" data-name="Ellipse 34" cx="7.707" cy="7.707" r="7.707" transform="translate(113.23 118.514)" fill="#e6e6e6"/>
    <circle id="Ellipse_35" data-name="Ellipse 35" cx="7.707" cy="7.707" r="7.707" transform="translate(152.245 118.514)" fill="#e6e6e6"/>
    <circle id="Ellipse_36" data-name="Ellipse 36" cx="7.707" cy="7.707" r="7.707" transform="translate(191.26 118.514)" fill="#e6e6e6"/>
    <circle id="Ellipse_37" data-name="Ellipse 37" cx="7.707" cy="7.707" r="7.707" transform="translate(230.274 118.514)" fill="#e6e6e6"/>
    <circle id="Ellipse_38" data-name="Ellipse 38" cx="7.707" cy="7.707" r="7.707" transform="translate(269.289 118.514)" fill="#e6e6e6"/>
    <circle id="Ellipse_39" data-name="Ellipse 39" cx="7.707" cy="7.707" r="7.707" transform="translate(308.303 118.514)" fill="#e6e6e6"/>
    <circle id="Ellipse_40" data-name="Ellipse 40" cx="7.707" cy="7.707" r="7.707" transform="translate(347.318 118.514)" fill="#e6e6e6"/>
    <circle id="Ellipse_41" data-name="Ellipse 41" cx="7.707" cy="7.707" r="7.707" transform="translate(386.333 118.514)" fill="#e6e6e6"/>
    <circle id="Ellipse_42" data-name="Ellipse 42" cx="7.707" cy="7.707" r="7.707" transform="translate(35.201 158.019)" fill="#e6e6e6"/>
    <circle id="Ellipse_43" data-name="Ellipse 43" cx="7.707" cy="7.707" r="7.707" transform="translate(74.215 158.019)" fill="#3ebfbb"/>
    <circle id="Ellipse_44" data-name="Ellipse 44" cx="7.707" cy="7.707" r="7.707" transform="translate(113.23 158.019)" fill="#e6e6e6"/>
    <circle id="Ellipse_45" data-name="Ellipse 45" cx="7.707" cy="7.707" r="7.707" transform="translate(152.245 158.019)" fill="#e6e6e6"/>
    <circle id="Ellipse_46" data-name="Ellipse 46" cx="7.707" cy="7.707" r="7.707" transform="translate(191.26 158.019)" fill="#e6e6e6"/>
    <circle id="Ellipse_47" data-name="Ellipse 47" cx="7.707" cy="7.707" r="7.707" transform="translate(230.274 158.019)" fill="#e6e6e6"/>
    <circle id="Ellipse_48" data-name="Ellipse 48" cx="7.707" cy="7.707" r="7.707" transform="translate(269.289 158.019)" fill="#e6e6e6"/>
    <circle id="Ellipse_49" data-name="Ellipse 49" cx="7.707" cy="7.707" r="7.707" transform="translate(308.303 158.019)" fill="#e6e6e6"/>
    <circle id="Ellipse_50" data-name="Ellipse 50" cx="7.707" cy="7.707" r="7.707" transform="translate(347.318 158.019)" fill="#e6e6e6"/>
    <circle id="Ellipse_51" data-name="Ellipse 51" cx="7.707" cy="7.707" r="7.707" transform="translate(386.333 158.019)" fill="#e6e6e6"/>
    <circle id="Ellipse_52" data-name="Ellipse 52" cx="7.707" cy="7.707" r="7.707" transform="translate(35.201 197.523)" fill="#e6e6e6"/>
    <circle id="Ellipse_53" data-name="Ellipse 53" cx="7.707" cy="7.707" r="7.707" transform="translate(74.215 197.523)" fill="#e6e6e6"/>
    <circle id="Ellipse_54" data-name="Ellipse 54" cx="7.707" cy="7.707" r="7.707" transform="translate(113.23 197.523)" fill="#e6e6e6"/>
    <circle id="Ellipse_55" data-name="Ellipse 55" cx="7.707" cy="7.707" r="7.707" transform="translate(152.245 197.523)" fill="#e6e6e6"/>
    <circle id="Ellipse_56" data-name="Ellipse 56" cx="7.707" cy="7.707" r="7.707" transform="translate(191.26 197.523)" fill="#e6e6e6"/>
    <circle id="Ellipse_57" data-name="Ellipse 57" cx="7.707" cy="7.707" r="7.707" transform="translate(230.274 197.523)" fill="#e6e6e6"/>
    <circle id="Ellipse_58" data-name="Ellipse 58" cx="7.707" cy="7.707" r="7.707" transform="translate(269.289 197.523)" fill="#e6e6e6"/>
    <circle id="Ellipse_59" data-name="Ellipse 59" cx="7.707" cy="7.707" r="7.707" transform="translate(308.303 197.523)" fill="#e6e6e6"/>
    <circle id="Ellipse_60" data-name="Ellipse 60" cx="7.707" cy="7.707" r="7.707" transform="translate(347.318 197.523)" fill="#e6e6e6"/>
    <circle id="Ellipse_61" data-name="Ellipse 61" cx="7.707" cy="7.707" r="7.707" transform="translate(386.333 197.523)" fill="#e6e6e6"/>
    <circle id="Ellipse_62" data-name="Ellipse 62" cx="7.707" cy="7.707" r="7.707" transform="translate(35.201 237.027)" fill="#e6e6e6"/>
    <circle id="Ellipse_63" data-name="Ellipse 63" cx="7.707" cy="7.707" r="7.707" transform="translate(74.215 237.027)" fill="#e6e6e6"/>
    <circle id="Ellipse_64" data-name="Ellipse 64" cx="7.707" cy="7.707" r="7.707" transform="translate(113.23 237.027)" fill="#3ebfbb"/>
    <circle id="Ellipse_65" data-name="Ellipse 65" cx="7.707" cy="7.707" r="7.707" transform="translate(152.245 237.027)" fill="#e6e6e6"/>
    <circle id="Ellipse_66" data-name="Ellipse 66" cx="7.707" cy="7.707" r="7.707" transform="translate(191.26 237.027)" fill="#e6e6e6"/>
    <circle id="Ellipse_67" data-name="Ellipse 67" cx="7.707" cy="7.707" r="7.707" transform="translate(230.274 237.027)" fill="#e6e6e6"/>
    <circle id="Ellipse_68" data-name="Ellipse 68" cx="7.707" cy="7.707" r="7.707" transform="translate(269.289 237.027)" fill="#e6e6e6"/>
    <circle id="Ellipse_69" data-name="Ellipse 69" cx="7.707" cy="7.707" r="7.707" transform="translate(308.303 237.027)" fill="#e6e6e6"/>
    <circle id="Ellipse_70" data-name="Ellipse 70" cx="7.707" cy="7.707" r="7.707" transform="translate(347.318 237.027)" fill="#e6e6e6"/>
    <circle id="Ellipse_71" data-name="Ellipse 71" cx="7.707" cy="7.707" r="7.707" transform="translate(386.333 237.027)" fill="#e6e6e6"/>
    <circle id="Ellipse_72" data-name="Ellipse 72" cx="7.707" cy="7.707" r="7.707" transform="translate(35.201 276.532)" fill="#e6e6e6"/>
    <circle id="Ellipse_73" data-name="Ellipse 73" cx="7.707" cy="7.707" r="7.707" transform="translate(74.215 276.532)" fill="#e6e6e6"/>
    <circle id="Ellipse_74" data-name="Ellipse 74" cx="7.707" cy="7.707" r="7.707" transform="translate(113.23 276.532)" fill="#e6e6e6"/>
    <circle id="Ellipse_75" data-name="Ellipse 75" cx="7.707" cy="7.707" r="7.707" transform="translate(152.245 276.532)" fill="#e6e6e6"/>
    <circle id="Ellipse_76" data-name="Ellipse 76" cx="7.707" cy="7.707" r="7.707" transform="translate(191.26 276.532)" fill="#e6e6e6"/>
    <circle id="Ellipse_77" data-name="Ellipse 77" cx="7.707" cy="7.707" r="7.707" transform="translate(230.274 276.532)" fill="#e6e6e6"/>
    <circle id="Ellipse_78" data-name="Ellipse 78" cx="7.707" cy="7.707" r="7.707" transform="translate(269.289 276.532)" fill="#e6e6e6"/>
    <circle id="Ellipse_79" data-name="Ellipse 79" cx="7.707" cy="7.707" r="7.707" transform="translate(308.303 276.532)" fill="#e6e6e6"/>
    <circle id="Ellipse_80" data-name="Ellipse 80" cx="7.707" cy="7.707" r="7.707" transform="translate(347.318 276.532)" fill="#e6e6e6"/>
    <circle id="Ellipse_81" data-name="Ellipse 81" cx="7.707" cy="7.707" r="7.707" transform="translate(386.333 276.532)" fill="#e6e6e6"/>
    <circle id="Ellipse_82" data-name="Ellipse 82" cx="7.707" cy="7.707" r="7.707" transform="translate(35.201 316.036)" fill="#e6e6e6"/>
    <circle id="Ellipse_83" data-name="Ellipse 83" cx="7.707" cy="7.707" r="7.707" transform="translate(74.215 316.036)" fill="#e6e6e6"/>
    <circle id="Ellipse_84" data-name="Ellipse 84" cx="7.707" cy="7.707" r="7.707" transform="translate(113.23 316.036)" fill="#e6e6e6"/>
    <circle id="Ellipse_85" data-name="Ellipse 85" cx="7.707" cy="7.707" r="7.707" transform="translate(152.245 316.036)" fill="#e6e6e6"/>
    <circle id="Ellipse_86" data-name="Ellipse 86" cx="7.707" cy="7.707" r="7.707" transform="translate(191.26 316.036)" fill="#e6e6e6"/>
    <circle id="Ellipse_87" data-name="Ellipse 87" cx="7.707" cy="7.707" r="7.707" transform="translate(230.274 316.036)" fill="#e6e6e6"/>
    <circle id="Ellipse_88" data-name="Ellipse 88" cx="7.707" cy="7.707" r="7.707" transform="translate(269.289 316.036)" fill="#e6e6e6"/>
    <circle id="Ellipse_89" data-name="Ellipse 89" cx="7.707" cy="7.707" r="7.707" transform="translate(308.303 316.036)" fill="#e6e6e6"/>
    <circle id="Ellipse_90" data-name="Ellipse 90" cx="7.707" cy="7.707" r="7.707" transform="translate(347.318 316.036)" fill="#e6e6e6"/>
    <circle id="Ellipse_91" data-name="Ellipse 91" cx="7.707" cy="7.707" r="7.707" transform="translate(386.333 316.036)" fill="#e6e6e6"/>
    <circle id="Ellipse_92" data-name="Ellipse 92" cx="7.707" cy="7.707" r="7.707" transform="translate(35.201 355.54)" fill="#e6e6e6"/>
    <circle id="Ellipse_93" data-name="Ellipse 93" cx="7.707" cy="7.707" r="7.707" transform="translate(74.215 355.54)" fill="#e6e6e6"/>
    <circle id="Ellipse_94" data-name="Ellipse 94" cx="7.707" cy="7.707" r="7.707" transform="translate(113.23 355.54)" fill="#e6e6e6"/>
    <circle id="Ellipse_95" data-name="Ellipse 95" cx="7.707" cy="7.707" r="7.707" transform="translate(152.245 355.54)" fill="#e6e6e6"/>
    <circle id="Ellipse_96" data-name="Ellipse 96" cx="7.707" cy="7.707" r="7.707" transform="translate(191.26 355.54)" fill="#e6e6e6"/>
    <circle id="Ellipse_97" data-name="Ellipse 97" cx="7.707" cy="7.707" r="7.707" transform="translate(230.274 355.54)" fill="#e6e6e6"/>
    <circle id="Ellipse_98" data-name="Ellipse 98" cx="7.707" cy="7.707" r="7.707" transform="translate(269.289 355.54)" fill="#e6e6e6"/>
    <circle id="Ellipse_99" data-name="Ellipse 99" cx="7.707" cy="7.707" r="7.707" transform="translate(308.303 355.54)" fill="#e6e6e6"/>
    <circle id="Ellipse_100" data-name="Ellipse 100" cx="7.707" cy="7.707" r="7.707" transform="translate(347.318 355.54)" fill="#e6e6e6"/>
    <circle id="Ellipse_101" data-name="Ellipse 101" cx="7.707" cy="7.707" r="7.707" transform="translate(386.333 355.54)" fill="#e6e6e6"/>
    <path id="Path_4" data-name="Path 4" d="M320.375,305.854l91.474-160.289H228.8L137.232,304.171,228.8,462.778H411.946l91.4-158.31Z" fill="#ff7260"/>
    <path id="Path_5" data-name="Path 5" d="M526.065,291.005l.171-.3L434.665,132.1h-.1L343.093,292.391Z" fill="#3ebfbb"/>
    <path id="Path_6" data-name="Path 6" d="M815.777,256.517q-2.238-2.615-2.238-7.657,0-4.994,2.238-7.61a7.721,7.721,0,0,1,6.2-2.615,7.85,7.85,0,0,1,6.268,2.615q2.261,2.615,2.261,7.61,0,5.042-2.261,7.657a7.849,7.849,0,0,1-6.268,2.615,7.72,7.72,0,0,1-6.2-2.615Zm8.883-2.709a10.659,10.659,0,0,0,.848-4.947,10.29,10.29,0,0,0-.873-4.877,2.865,2.865,0,0,0-2.662-1.531,2.776,2.776,0,0,0-2.591,1.531,10.536,10.536,0,0,0-.849,4.877,10.665,10.665,0,0,0,.849,4.924,2.774,2.774,0,0,0,2.591,1.532,2.861,2.861,0,0,0,2.687-1.508Zm-3.016,18.848,19.412-33.549h5.23l-19.461,33.549Zm18.023-2.285q-2.239-2.615-2.238-7.7,0-4.994,2.238-7.586a8.817,8.817,0,0,1,12.486,0q2.237,2.592,2.238,7.634t-2.238,7.657a8.76,8.76,0,0,1-12.487,0Zm8.881-2.733a10.668,10.668,0,0,0,.849-4.924,10.3,10.3,0,0,0-.872-4.877,3.019,3.019,0,0,0-5.254,0,10.547,10.547,0,0,0-.848,4.877,10.68,10.68,0,0,0,.848,4.924,3.039,3.039,0,0,0,5.277,0Z" transform="translate(-157.236 -117.907)" fill="#f4f4f4"/>
    <path id="Path_7" data-name="Path 7" d="M159.474,545.915q-2.238-2.615-2.238-7.657,0-4.994,2.238-7.61a7.721,7.721,0,0,1,6.2-2.615,7.85,7.85,0,0,1,6.268,2.615q2.26,2.615,2.261,7.61,0,5.042-2.261,7.657a7.849,7.849,0,0,1-6.268,2.615,7.72,7.72,0,0,1-6.2-2.615Zm8.883-2.709a10.66,10.66,0,0,0,.848-4.947,10.29,10.29,0,0,0-.873-4.877,2.866,2.866,0,0,0-2.662-1.531,2.776,2.776,0,0,0-2.591,1.531,10.537,10.537,0,0,0-.849,4.877,10.665,10.665,0,0,0,.849,4.924,2.775,2.775,0,0,0,2.591,1.532,2.861,2.861,0,0,0,2.687-1.508Zm-3.016,18.848L184.753,528.5h5.23l-19.46,33.549Zm18.023-2.285q-2.24-2.615-2.238-7.7,0-4.994,2.238-7.586a8.817,8.817,0,0,1,12.487,0q2.237,2.592,2.238,7.634t-2.238,7.657a8.76,8.76,0,0,1-12.487,0Zm8.881-2.733a10.668,10.668,0,0,0,.849-4.924,10.3,10.3,0,0,0-.872-4.877,3.019,3.019,0,0,0-5.254,0,10.545,10.545,0,0,0-.848,4.877,10.681,10.681,0,0,0,.848,4.924,3.039,3.039,0,0,0,5.277,0Z" transform="translate(-157.236 -117.907)" fill="#f4f4f4"/>
    <path id="Path_8" data-name="Path 8" d="M439.283,234.863l-1.185-.315,25.854-97.257H613.913v1.226H464.894Z" fill="#f4f4f4"/>
    <path id="Path_9" data-name="Path 9" d="M783.4,268.677a12.866,12.866,0,1,1,12.866-12.866A12.866,12.866,0,0,1,783.4,268.677Zm0-24.507a11.641,11.641,0,1,0,11.641,11.641A11.641,11.641,0,0,0,783.4,244.17Z" transform="translate(-157.236 -117.907)" fill="#2f2e41"/>
    <circle id="Ellipse_102" data-name="Ellipse 102" cx="4.901" cy="4.901" r="4.901" transform="translate(621.265 133.003)" fill="#3ebfbb"/>
    <path id="Path_10" data-name="Path 10" d="M249.956,330.343l1.185.315-25.854,97.256H75.326v-1.225H224.345Z" fill="#f4f4f4"/>
    <path id="Path_11" data-name="Path 11" d="M220.309,532.342a12.866,12.866,0,1,1-12.866,12.866,12.866,12.866,0,0,1,12.866-12.866Zm0,24.507a11.641,11.641,0,1,0-11.641-11.641,11.641,11.641,0,0,0,11.641,11.641Z" transform="translate(-157.236 -117.907)" fill="#2f2e41"/>
    <circle id="Ellipse_103" data-name="Ellipse 103" cx="4.901" cy="4.901" r="4.901" transform="translate(58.171 422.401)" fill="#3ebfbb"/>
    <rect id="Rectangle_17" data-name="Rectangle 17" width="18.604" height="25.301" transform="translate(719.152 621.28)" fill="#a0616a"/>
    <rect id="Rectangle_18" data-name="Rectangle 18" width="18.604" height="25.301" transform="translate(813.66 621.28)" fill="#a0616a"/>
    <path id="Path_12" data-name="Path 12" d="M1002.41,529.334h0a11.039,11.039,0,0,1-10.906-12.75l3.047-19.425.906-5.777H1009.6l.744,8.186,2.944,16.824a11.039,11.039,0,0,1-10.874,12.943Z" transform="translate(-157.236 -117.907)" fill="#a0616a"/>
    <path id="Path_13" data-name="Path 13" d="M863.993,527.1h0a11.04,11.04,0,0,1-10.906-12.75l3.047-19.425.906-5.777h14.139l.744,8.186,2.944,16.824A11.04,11.04,0,0,1,863.993,527.1Z" transform="translate(-157.236 -117.907)" fill="#a0616a"/>
    <path id="Path_14" data-name="Path 14" d="M834.5,626.489l-22.324-.744-36.464-220.27L739.244,626.489l-21.58-.744-5.953-254.5H836.729Z" fill="#2f2e41"/>
    <path id="Path_15" data-name="Path 15" d="M894.526,782.054c-18.941.548-33.768-4.573-43.49-16.728a8.03,8.03,0,0,1-.608-9.143h0a8.028,8.028,0,0,1,7.816-3.843l6.155.719,12.817-6.4c-2.622,15.247,4.51,15.534,21.569,10.423l3.073,15.751a7.735,7.735,0,0,1-7.333,9.225Z" transform="translate(-157.236 -117.907)" fill="#2f2e41"/>
    <path id="Path_16" data-name="Path 16" d="M989.034,782.054c-18.941.548-33.768-4.573-43.49-16.728a8.03,8.03,0,0,1-.608-9.143h0a8.028,8.028,0,0,1,7.816-3.843l6.155.719,12.721-5.367c-2.622,15.247,4.606,14.5,21.665,9.386l3.073,15.751a7.735,7.735,0,0,1-7.333,9.225Z" transform="translate(-157.236 -117.907)" fill="#2f2e41"/>
    <circle id="Ellipse_104" data-name="Ellipse 104" cx="29.766" cy="29.766" r="29.766" transform="translate(738.501 78.79)" fill="#a0616a"/>
    <path id="Path_17" data-name="Path 17" d="M798.033,162.88l-32,1.488-1.488-33.487,27.534-10.418Z" fill="#a0616a"/>
    <path id="Path_18" data-name="Path 18" d="M1001.41,499.568c-43.636-8.257-93.35-11.215-126.507,0l10.418-218.782L920.3,270.368l2.6-4.093,29.394-4.837,14.139,4.465,8.93,13.395,38.7,21.581C995.009,374.562,989.367,441.508,1001.41,499.568Z" transform="translate(-157.236 -117.907)" fill="#2f2e41"/>
    <path id="Path_19" data-name="Path 19" d="M1022.24,498.08l-32-3.721c6.67-32.5,3.942-74.766,5.581-117.205,1.04-26.915,6.622-51.411,8.558-81.485h0c12.136,3.164,18.419,14.433,18.491,27.713C1023.22,386.369,1029.17,445.387,1022.24,498.08Z" transform="translate(-157.236 -117.907)" fill="#2f2e41"/>
    <path id="Path_20" data-name="Path 20" d="M883.086,495.1l-31.255-2.232,18.6-105.67,6.3-87.934c-.98-12.824,5.874-20.275,16.026-20.713h0c22.177,26.262,24.748,62.454,17.86,103.438Z" transform="translate(-157.236 -117.907)" fill="#2f2e41"/>
    <path id="Path_21" data-name="Path 21" d="M935.157,248.348l-3.839-10.928a35.842,35.842,0,0,0-28.4-23.551h0l-24.057-.552,6.68-10.734a32.64,32.64,0,0,1,30.95-15.234l24.043,2.4A21.779,21.779,0,0,1,960.06,213.44l-2.205,23.646a14.893,14.893,0,0,1-22.7,11.262Z" transform="translate(-157.236 -117.907)" fill="#363943"/>
  </g>
</svg>
