<svg xmlns="http://www.w3.org/2000/svg" width="558.138" height="333.255" viewBox="0 0 558.138 333.255">
  <path id="Path_26" data-name="Path 26" d="M311.24,312c113.094,0,144.572-.689,205.876-.689h61.3c11.258,0,29.206.546,44.415.469,8.4-.043,14.035-.469,18.986-.469,2.186,1.462-10.245,56.5-18.986,80.435-17.667,48.385-39.718,98.076-71.573,135.163C488.623,599.832,413.086,644.5,311.247,644.5c-98.086,0-182.451,3.884-227.314-48.167V353.571c0-16.467.115-24.294,0-35.078.075-1.452.063-1.9.067-4.024,0-2.453-.31-2.876.933-2.876C142.877,311.592,215.475,312,311.24,312Z" transform="translate(-83.933 -311.311)" fill="#ff7260"/>
</svg>
