<svg xmlns="http://www.w3.org/2000/svg" width="874.164" height="628.553" viewBox="0 0 874.164 628.553">
  <g id="undraw_Data_trends_re_2cdy" transform="translate(0 0.001)">
    <path id="Path_117" data-name="Path 117" d="M879.59,413.72l2.8-22.427a30.285,30.285,0,0,1,60.1,7.5l-2.8,22.427a4.073,4.073,0,0,1-4.54,3.533l-52.03-6.491a4.073,4.073,0,0,1-3.533-4.54Z" transform="translate(-128.726 -134.28)" fill="#2f2e41"/>
    <circle id="Ellipse_124" data-name="Ellipse 124" cx="22.204" cy="22.204" r="22.204" transform="translate(753.582 241.723)" fill="#ffb8b8"/>
    <path id="Path_118" data-name="Path 118" d="M875.055,392.2a23.984,23.984,0,0,1,26.738-20.806l4.486.56a23.983,23.983,0,0,1,20.806,26.738l-.056.449-9.479-1.183-2.1-9.456-1.776,8.972-4.9-.611-1.061-4.771-.9,4.527L875,392.649Z" transform="translate(-128.726 -134.28)" fill="#2f2e41"/>
    <path id="Path_119" data-name="Path 119" d="M795.916,477.411a10.228,10.228,0,0,0,15.284,3.515l20.167,11.814,10.168-10.5-28.714-16.283a10.283,10.283,0,0,0-16.905,11.459Z" transform="translate(-128.726 -134.28)" fill="#ffb8b8"/>
    <path id="Path_120" data-name="Path 120" d="M862.013,498.639c-14.875,0-41.052-6.659-42.5-7.031l-.458-.117,4.12-20.859,39.982,7.9,21.721-30.587,24.937-2.535-.7.916c-.324.427-32.47,42.743-37.472,49.842C870.382,497.956,866.776,498.639,862.013,498.639Z" transform="translate(-128.726 -134.28)" fill="#3f3d56"/>
    <path id="Path_121" data-name="Path 121" d="M866,576.927l-.6-.284c-.127-.061-12.765-6.208-19.311-18.209-6.515-11.944,23.983-62.612,26.117-66.128l.031-16.091,10.971-29.62,13.992-7.908-12.013,28.029Z" transform="translate(-128.726 -134.28)" fill="#3f3d56"/>
    <path id="Path_122" data-name="Path 122" d="M723.257,615.591H709.885l-6.362-51.579h19.736Z" fill="#ffb8b8"/>
    <path id="Path_123" data-name="Path 123" d="M855.393,762.833l-43.118,0v-.545A16.783,16.783,0,0,1,829.056,745.5h26.338Z" transform="translate(-128.726 -134.28)" fill="#2f2e41"/>
    <path id="Path_124" data-name="Path 124" d="M866.891,603.872l-12.707,4.163L832.077,561l18.755-6.145Z" fill="#ffb8b8"/>
    <path id="Path_125" data-name="Path 125" d="M1002.89,749.408l-40.97,13.425-.17-.518a16.784,16.784,0,0,1,10.722-21.174h0l25.026-8.2Z" transform="translate(-128.726 -134.28)" fill="#2f2e41"/>
    <path id="Path_126" data-name="Path 126" d="M969.726,729.72l-38.12-63.641-32.18-67.993-28.958,60.06-11.5,77.788-40.343.561.159-.631,61.737-245.311,48.352,7.224-2.2,31.916,1.311,1.864c10.923,15.517,22.216,31.56,15.739,48.854l18.362,54.523,40.646,90.786Z" transform="translate(-128.726 -134.28)" fill="#2f2e41"/>
    <path id="Path_127" data-name="Path 127" d="M882.726,543.72c-7.006,0-15-8-10.853-21.658l-.269-.194,9.961-44.008c-8.693-12.432,2.768-22.691,3.842-23.608l5.471-9.847L915.016,429.1,927.229,530.57l-.181.173C918.228,539.182,888.6,543.72,882.726,543.72Z" transform="translate(-128.726 -134.28)" fill="#3ebfbb"/>
    <path id="Path_128" data-name="Path 128" d="M932.159,566.617a11.88,11.88,0,0,1-2.851-.3c-.939-.235-2.458-1.431-4.807-9.077-9.336-30.4-20.359-121.86-12.351-130.811l.183-.205,13.149,2.191c1.093-.807,6.829-4.811,12.121-4.114a8.033,8.033,0,0,1,5.5,3.249l.091.119,4.189,59.594,15.346,70.131-.368.167C961.466,557.966,942.3,566.617,932.159,566.617Z" transform="translate(-128.726 -134.28)" fill="#3f3d56"/>
    <path id="Path_129" data-name="Path 129" d="M923.317,543.324a10.228,10.228,0,0,0,9.662-12.353l19.249-13.258-5.2-13.662-26.92,19.1a10.283,10.283,0,0,0,3.212,20.169Z" transform="translate(-128.726 -134.28)" fill="#ffb8b8"/>
    <path id="Path_130" data-name="Path 130" d="M945.876,528.337,928.73,515.764l24.1-32.864-18.5-32.639,8.275-23.661.535,1.019c.249.475,24.948,47.527,29.257,55.067,4.483,7.844-24.97,43.761-26.226,45.285Z" transform="translate(-128.726 -134.28)" fill="#3f3d56"/>
    <path id="Path_131" data-name="Path 131" d="M560.206,676.255l-14.592-6.144L535.6,596.959H402.3l-10.85,72.853-13.055,6.527a3.1,3.1,0,0,0,1.387,5.873H559a3.1,3.1,0,0,0,1.2-5.957Z" transform="translate(-128.726 -134.28)" fill="#363943"/>
    <path id="Path_132" data-name="Path 132" d="M797.1,606.692H142.268a12.973,12.973,0,0,1-12.944-12.973v-92.34H810.042v92.34A12.974,12.974,0,0,1,797.1,606.692Z" transform="translate(-128.726 -134.28)" fill="#363943"/>
    <path id="Path_133" data-name="Path 133" d="M810.726,545.021h-682V149.92a15.657,15.657,0,0,1,15.64-15.64H795.087a15.657,15.657,0,0,1,15.64,15.639Z" transform="translate(-128.726 -134.28)" fill="#363943"/>
    <path id="Path_134" data-name="Path 134" d="M769.993,516.344H169.46A12.07,12.07,0,0,1,157.4,504.287V175.013a12.071,12.071,0,0,1,12.057-12.057H769.993a12.071,12.071,0,0,1,12.057,12.057V504.287A12.07,12.07,0,0,1,769.993,516.344Z" transform="translate(-128.726 -134.28)" fill="#1d2029"/>
    <rect id="Rectangle_27" data-name="Rectangle 27" width="144.996" height="110.773" transform="translate(489.86 81.909)" fill="#1d2029"/>
    <path id="Path_157" data-name="Path 157" d="M0,0H130.586V99.765H0Z" transform="translate(497.065 87.414)" fill="#1d2029"/>
    <path id="Path_136" data-name="Path 136" d="M693.377,295.7h.052a34.817,34.817,0,0,0,.779-69.489.794.794,0,0,0-.6.208.786.786,0,0,0-.257.576l-.761,67.9a.8.8,0,0,0,.788.8Z" transform="translate(-128.726 -134.28)" fill="#3f3d56"/>
    <path id="Path_137" data-name="Path 137" d="M666.072,237.433a1.025,1.025,0,0,1,.72.307l23.376,23.906a1.014,1.014,0,0,1,.291.725l-.364,32.491a1.011,1.011,0,0,1-.33.74,1.026,1.026,0,0,1-.771.268,35.044,35.044,0,0,1-23.7-58.091,1.027,1.027,0,0,1,.741-.347Z" transform="translate(-128.726 -134.28)" fill="#ff7260"/>
    <path id="Path_138" data-name="Path 138" d="M689.842,225.927a1.029,1.029,0,0,1,.7.286,1.011,1.011,0,0,1,.314.748l-.329,29.316a1.021,1.021,0,0,1-1.75.7l-20.4-20.861a1.023,1.023,0,0,1,.055-1.482,35.118,35.118,0,0,1,21.346-8.708Z" transform="translate(-128.726 -134.28)" fill="#3ebfbb"/>
    <path id="Path_139" data-name="Path 139" d="M679.334,309.775a6.253,6.253,0,1,1-6.183-6.323,6.253,6.253,0,0,1,6.183,6.323Z" transform="translate(-128.726 -134.28)" fill="#3ebfbb"/>
    <path id="Path_140" data-name="Path 140" d="M697.2,309.976a6.253,6.253,0,1,1-6.183-6.323A6.253,6.253,0,0,1,697.2,309.976Z" transform="translate(-128.726 -134.28)" fill="#3f3d56"/>
    <path id="Path_141" data-name="Path 141" d="M715.065,310.176a6.253,6.253,0,1,1-6.183-6.323A6.253,6.253,0,0,1,715.065,310.176Z" transform="translate(-128.726 -134.28)" fill="#e6e6e6"/>
    <rect id="Rectangle_29" data-name="Rectangle 29" width="144.996" height="110.773" transform="translate(488.333 210.116)" fill="#1d2029"/>
    <rect id="Rectangle_30" data-name="Rectangle 30" width="130.586" height="99.765" transform="translate(495.538 215.621)" fill="#1d2029"/>
    <circle id="Ellipse_125" data-name="Ellipse 125" cx="5.422" cy="5.422" r="5.422" transform="translate(512.273 237.566)" fill="#ff7260"/>
    <path id="Path_142" data-name="Path 142" d="M733.539,373.049a3.677,3.677,0,0,1,0,7.354H676.513a3.677,3.677,0,0,1,0-7.354h57.026m0-.9H676.513a4.578,4.578,0,1,0,0,9.155h57.026a4.578,4.578,0,1,0,0-9.155Z" transform="translate(-128.726 -134.28)" fill="#ff7260"/>
    <path id="Path_143" data-name="Path 143" d="M711.038,381.3H668.11a4.578,4.578,0,0,1,0-9.155h42.928a4.578,4.578,0,0,1,0,9.155Z" transform="translate(-128.726 -134.28)" fill="#3ebfbb"/>
    <circle id="Ellipse_126" data-name="Ellipse 126" cx="5.422" cy="5.422" r="5.422" transform="translate(512.273 260.081)" fill="#ff7260"/>
    <path id="Path_144" data-name="Path 144" d="M733.539,395.564a3.677,3.677,0,0,1,0,7.354H676.513a3.677,3.677,0,0,1,0-7.354h57.026m0-.9H676.513a4.578,4.578,0,0,0,0,9.155h57.026a4.578,4.578,0,1,0,0-9.155Z" transform="translate(-128.726 -134.28)" fill="#ff7260"/>
    <path id="Path_145" data-name="Path 145" d="M727.248,403.819H668.109a4.578,4.578,0,0,1,0-9.155h59.139a4.578,4.578,0,0,1,0,9.155Z" transform="translate(-128.726 -134.28)" fill="#3ebfbb"/>
    <circle id="Ellipse_127" data-name="Ellipse 127" cx="5.422" cy="5.422" r="5.422" transform="translate(512.273 282.596)" fill="#ff7260"/>
    <path id="Path_146" data-name="Path 146" d="M733.539,418.079a3.677,3.677,0,0,1,0,7.354H676.513a3.677,3.677,0,0,1,0-7.354h57.026m0-.9H676.513a4.578,4.578,0,0,0,0,9.155h57.026a4.578,4.578,0,1,0,0-9.155Z" transform="translate(-128.726 -134.28)" fill="#ff7260"/>
    <path id="Path_147" data-name="Path 147" d="M692.125,426.334H668.109a4.578,4.578,0,0,1,0-9.155h24.016a4.578,4.578,0,0,1,0,9.155Z" transform="translate(-128.726 -134.28)" fill="#3ebfbb"/>
    <path id="Path_156" data-name="Path 156" d="M0,0H405.093V207.61H0Z" transform="translate(51.188 101.508)" fill="#1d2029"/>
    <path id="Path_155" data-name="Path 155" d="M0,0H378.087V186.978H0Z" transform="translate(64.691 111.824)" fill="#1d2029"/>
    <path id="Path_148" data-name="Path 148" d="M524.614,404.557H249a.863.863,0,0,1-.863-.863v-132.1a.863.863,0,0,1,1.725,0V402.832H524.614a.863.863,0,0,1,0,1.725Z" transform="translate(-128.726 -134.28)" fill="#ff7260"/>
    <path id="Path_149" data-name="Path 149" d="M307.884,395.069H282.815a2.563,2.563,0,0,1-2.561-2.56V357.952a2.563,2.563,0,0,1,2.56-2.56h25.069a2.563,2.563,0,0,1,2.56,2.56v34.557a2.563,2.563,0,0,1-2.56,2.56Z" transform="translate(-128.726 -134.28)" fill="#3ebfbb"/>
    <path id="Path_150" data-name="Path 150" d="M353.6,395.069H328.531a2.563,2.563,0,0,1-2.561-2.56V325.174a2.563,2.563,0,0,1,2.56-2.56H353.6a2.563,2.563,0,0,1,2.561,2.56v67.334a2.563,2.563,0,0,1-2.561,2.561Z" transform="translate(-128.726 -134.28)" fill="#3ebfbb"/>
    <path id="Path_151" data-name="Path 151" d="M399.315,395.069H374.246a2.563,2.563,0,0,1-2.561-2.56V357.952a2.563,2.563,0,0,1,2.561-2.56h25.069a2.563,2.563,0,0,1,2.561,2.56v34.557a2.563,2.563,0,0,1-2.56,2.56Z" transform="translate(-128.726 -134.28)" fill="#3ebfbb"/>
    <path id="Path_152" data-name="Path 152" d="M445.031,395.069H419.962a2.507,2.507,0,0,1-2.561-2.444v-80.5a2.507,2.507,0,0,1,2.561-2.444h25.069a2.507,2.507,0,0,1,2.561,2.444v80.5A2.507,2.507,0,0,1,445.031,395.069Z" transform="translate(-128.726 -134.28)" fill="#3ebfbb"/>
    <path id="Path_153" data-name="Path 153" d="M490.746,395.069H465.678a2.563,2.563,0,0,1-2.561-2.56V288.947a2.563,2.563,0,0,1,2.56-2.56h25.068a2.563,2.563,0,0,1,2.561,2.56V392.509a2.563,2.563,0,0,1-2.561,2.56Z" transform="translate(-128.726 -134.28)" fill="#3ebfbb"/>
    <circle id="Ellipse_128" data-name="Ellipse 128" cx="5.175" cy="5.175" r="5.175" transform="translate(161.448 200.41)" fill="#ff7260"/>
    <circle id="Ellipse_129" data-name="Ellipse 129" cx="5.175" cy="5.175" r="5.175" transform="translate(207.164 166.77)" fill="#ff7260"/>
    <circle id="Ellipse_130" data-name="Ellipse 130" cx="5.175" cy="5.175" r="5.175" transform="translate(252.879 200.41)" fill="#ff7260"/>
    <circle id="Ellipse_131" data-name="Ellipse 131" cx="5.175" cy="5.175" r="5.175" transform="translate(298.595 150.381)" fill="#ff7260"/>
    <circle id="Ellipse_132" data-name="Ellipse 132" cx="5.175" cy="5.175" r="5.175" transform="translate(344.311 131.405)" fill="#ff7260"/>
    <path id="Path_154" data-name="Path 154" d="M258.163,206.744l-45.824-34.323-45.2,33.854-1.034-1.38,46.233-34.63,45.606,34.16,45.321-49.6.181-.074,45.716-18.419.645,1.6-45.534,18.346Z" fill="#ff7260"/>
  </g>
</svg>
