<svg xmlns="http://www.w3.org/2000/svg" width="928.541" height="697.124" viewBox="0 0 928.541 697.124">
  <g id="undraw_Data_re_80ws" transform="translate(-14.566 0)">
    <path id="Path_27" data-name="Path 27" d="M915.189,538.707H274.35a16.519,16.519,0,0,1-16.5-16.5V127.054a12.1,12.1,0,0,1,12.088-12.089H919.391a12.311,12.311,0,0,1,12.3,12.3V522.207A16.519,16.519,0,0,1,915.189,538.707Z" transform="translate(-102.5 -101.159)" fill="#363943"/>
    <path id="Path_28" data-name="Path 28" d="M891.811,515.341H294.567c-8.755,0-15.878-6.67-15.878-14.868V156.368c0-6.08,5.278-11.027,11.766-11.027H895.728c6.6,0,11.961,5.028,11.961,11.208V500.472C907.689,508.671,900.566,515.341,891.811,515.341Z" transform="translate(-102.5 -101.159)" fill="#363943"/>
    <path id="Path_29" data-name="Path 29" d="M931.459,126.11H257.618v-8.4a16.574,16.574,0,0,1,16.56-16.55H914.9a16.574,16.574,0,0,1,16.56,16.55Z" transform="translate(-102.5 -101.159)" fill="#ff7260"/>
    <circle id="Ellipse_105" data-name="Ellipse 105" cx="4.283" cy="4.283" r="4.283" transform="translate(180.931 8.217)" fill="#fff"/>
    <circle id="Ellipse_106" data-name="Ellipse 106" cx="4.283" cy="4.283" r="4.283" transform="translate(197.19 8.217)" fill="#fff"/>
    <circle id="Ellipse_107" data-name="Ellipse 107" cx="4.283" cy="4.283" r="4.283" transform="translate(213.448 8.217)" fill="#fff"/>
    <path id="Path_30" data-name="Path 30" d="M826.073,457.629H363.234a17.52,17.52,0,0,1-17.5-17.5V216.975a13.1,13.1,0,0,1,13.088-13.088H830.276a13.312,13.312,0,0,1,13.3,13.3V440.129a17.52,17.52,0,0,1-17.5,17.5ZM358.822,205.886a11.1,11.1,0,0,0-11.088,11.088V440.129a15.518,15.518,0,0,0,15.5,15.5H826.073a15.518,15.518,0,0,0,15.5-15.5V217.184a11.31,11.31,0,0,0-11.3-11.3Z" transform="translate(-102.5 -101.159)" fill="#ccc"/>
    <path id="Path_31" data-name="Path 31" d="M379.234,440.129H810.073a16,16,0,0,0,16-16V237.581a16,16,0,0,0-16-16H379.234a16,16,0,0,0-16,16V424.129A16,16,0,0,0,379.234,440.129Z" transform="translate(-102.5 -101.159)" fill="#363943"/>
    <circle id="Ellipse_108" data-name="Ellipse 108" cx="9" cy="9" r="9" transform="translate(316.654 156.695)" fill="#ccc"/>
    <circle id="Ellipse_109" data-name="Ellipse 109" cx="9" cy="9" r="9" transform="translate(316.654 190.695)" fill="#ccc"/>
    <circle id="Ellipse_110" data-name="Ellipse 110" cx="9" cy="9" r="9" transform="translate(316.654 224.695)" fill="#ccc"/>
    <circle id="Ellipse_111" data-name="Ellipse 111" cx="9" cy="9" r="9" transform="translate(316.654 258.695)" fill="#ccc"/>
    <path id="Path_32" data-name="Path 32" d="M769.154,267.855h-296a1,1,0,1,1,0-2h296a1,1,0,0,1,0,2Z" transform="translate(-102.5 -101.159)" fill="#ccc"/>
    <path id="Path_33" data-name="Path 33" d="M769.154,301.855h-296a1,1,0,1,1,0-2h296a1,1,0,0,1,0,2Z" transform="translate(-102.5 -101.159)" fill="#ccc"/>
    <path id="Path_34" data-name="Path 34" d="M769.154,335.855h-296a1,1,0,1,1,0-2h296a1,1,0,0,1,0,2Z" transform="translate(-102.5 -101.159)" fill="#ccc"/>
    <path id="Path_35" data-name="Path 35" d="M769.154,369.855h-296a1,1,0,1,1,0-2h296a1,1,0,0,1,0,2Z" transform="translate(-102.5 -101.159)" fill="#ccc"/>
    <path id="Path_36" data-name="Path 36" d="M529.154,403.855h-29a5.006,5.006,0,0,1-5-5v-27a5.006,5.006,0,0,1,5-5h29a5.006,5.006,0,0,1,5,5v27a5.006,5.006,0,0,1-5,5Z" transform="translate(-102.5 -101.159)" fill="#3ebfbb"/>
    <path id="Path_37" data-name="Path 37" d="M594.154,403.855h-29a5.006,5.006,0,0,1-5-5v-61a5.006,5.006,0,0,1,5-5h29a5.006,5.006,0,0,1,5,5v61A5.006,5.006,0,0,1,594.154,403.855Z" transform="translate(-102.5 -101.159)" fill="#3ebfbb"/>
    <path id="Path_38" data-name="Path 38" d="M660.154,403.855h-29a5.006,5.006,0,0,1-5-5v-95a5.006,5.006,0,0,1,5-5h29a5.006,5.006,0,0,1,5,5v95a5.006,5.006,0,0,1-5,5Z" transform="translate(-102.5 -101.159)" fill="#3ebfbb"/>
    <path id="Path_39" data-name="Path 39" d="M728.154,403.855h-29a5.006,5.006,0,0,1-5-5v-128a5.006,5.006,0,0,1,5-5h29a5.006,5.006,0,0,1,5,5v128a5.006,5.006,0,0,1-5,5Z" transform="translate(-102.5 -101.159)" fill="#3ebfbb"/>
    <path id="Path_40" data-name="Path 40" d="M769.154,403.855h-296a1,1,0,1,1,0-2h296a1,1,0,0,1,0,2Z" transform="translate(-102.5 -101.159)" fill="#3f3d56"/>
    <path id="Path_41" data-name="Path 41" d="M899.2,590.4a10.056,10.056,0,0,1,15.32-1.743l31.755-16.389L944.3,590.734,914.45,603.467A10.11,10.11,0,0,1,899.2,590.4Z" transform="translate(-102.5 -101.159)" fill="#ffb8b8"/>
    <path id="Path_42" data-name="Path 42" d="M926.524,597.289A4.5,4.5,0,0,1,925,595.078l-2.526-8.159A4.515,4.515,0,0,1,924.062,582l25.738-19.44,27.875-51.712a14.5,14.5,0,1,1,22.9,17.782L984.716,562.1a46.374,46.374,0,0,1-23.463,22.7L931.09,597.875a4.505,4.505,0,0,1-3.669-.039,4.454,4.454,0,0,1-.9-.547Z" transform="translate(-102.5 -101.159)" fill="#3f3d56"/>
    <circle id="Ellipse_112" data-name="Ellipse 112" cx="24.561" cy="24.561" r="24.561" transform="translate(874.214 338.98)" fill="#ffb8b8"/>
    <path id="Path_43" data-name="Path 43" d="M888.812,685.737H876.553l-5.831-47.288h18.1Z" fill="#ffb8b8"/>
    <path id="Path_44" data-name="Path 44" d="M867.795,682.233h23.644V697.12H852.908A14.887,14.887,0,0,1,867.795,682.233Z" fill="#2f2e41"/>
    <path id="Path_45" data-name="Path 45" d="M928.812,685.739H916.553l-5.831-47.289,18.1,0Z" fill="#ffb8b8"/>
    <path id="Path_46" data-name="Path 46" d="M907.795,682.234h23.644v14.887H892.908a14.887,14.887,0,0,1,14.887-14.887Z" fill="#2f2e41"/>
    <path id="Path_47" data-name="Path 47" d="M1032.21,774.9h-14.367a4.508,4.508,0,0,1-4.345-3.329l-20.68-76.7a.5.5,0,0,0-.982.16l4.177,72.742a4.5,4.5,0,0,1-4.867,4.742L975,771.166a4.512,4.512,0,0,1-4.1-3.964L956.191,614.457l5.691,3.415,53.329-9.054L1036.67,769.8a4.5,4.5,0,0,1-4.461,5.095Z" transform="translate(-102.5 -101.159)" fill="#2f2e41"/>
    <path id="Path_48" data-name="Path 48" d="M974.027,630.579a32.939,32.939,0,0,1-16.692-4.7,4.48,4.48,0,0,1-2.136-4.589c1.876-11.486,11.684-70.408,20.608-102.529,3.635-13.083,11.671-20.129,23.887-20.943,17.868-1.172,33.75,12.807,35.4,31.2,2.917,32.448-8.933,78.55-14.164,96.866a4.5,4.5,0,0,1-7.088,2.306l-10.661-8.293a3.533,3.533,0,0,0-4.516.188C989.682,628.1,981.146,630.579,974.027,630.579Z" transform="translate(-102.5 -101.159)" fill="#3f3d56"/>
    <path id="Path_49" data-name="Path 49" d="M906.787,443.738l9,38-13,32,9-31Z" opacity="0.2"/>
    <path id="Path_50" data-name="Path 50" d="M1015.29,484.9a16.539,16.539,0,0,0,6.388-1.155c.894-.345,1.822-.628,2.715-.972,7.882-3.045,13.074-11.439,13.26-19.886s-4.188-16.647-10.684-22.05-14.909-8.178-23.335-8.82c-9.075-.691-19.294,1.61-24.366,9.167-1.35,2.012-2.294,4.452-1.494,6.882a4.4,4.4,0,0,0,1.241,1.906c2.265,2.015,4.523.5,6.831.366,3.173-.184,6.023,2.385,7.047,5.394s.573,6.322-.254,9.391a23.464,23.464,0,0,0-1.183,5.71,5.74,5.74,0,0,0,2.378,5.055c1.983,1.2,4.587.505,6.571-.691s3.7-2.86,5.842-3.741,5.022-.685,6.27,1.268a6.935,6.935,0,0,1,.793,2.289c1.118,5.095.861,4.795,1.979,9.89Z" transform="translate(-102.5 -101.159)" fill="#2f2e41"/>
    <path id="Path_51" data-name="Path 51" d="M977.221,752.591l-153.8-53.561a10.556,10.556,0,0,1-6.49-13.426L856.9,570.846a7.734,7.734,0,0,1,9.836-4.755l158.994,55.372a7.867,7.867,0,0,1,4.837,10.006L990.647,746.1a10.556,10.556,0,0,1-13.426,6.49Z" transform="translate(-102.5 -101.159)" fill="#363943"/>
    <path id="Path_52" data-name="Path 52" d="M836.549,692.435,971.033,739.27a10.225,10.225,0,0,0,13.019-6.293l32.272-92.667a10.225,10.225,0,0,0-6.293-13.019L875.547,580.456a10.225,10.225,0,0,0-13.019,6.293l-32.272,92.667a10.225,10.225,0,0,0,6.293,13.019Z" transform="translate(-102.5 -101.159)" fill="#363943"/>
    <path id="Path_53" data-name="Path 53" d="M870.32,627.329l-6.66-2.32a1.444,1.444,0,0,1-.888-1.837l2.32-6.66a1.444,1.444,0,0,1,1.837-.888l6.66,2.32a1.444,1.444,0,0,1,.888,1.837l-2.319,6.66A1.444,1.444,0,0,1,870.32,627.329Z" transform="translate(-102.5 -101.159)" fill="#3ebfbb"/>
    <path id="Path_54" data-name="Path 54" d="M864.31,644.585l-6.66-2.32a1.444,1.444,0,0,1-.888-1.837l2.32-6.66a1.444,1.444,0,0,1,1.837-.888l6.66,2.32a1.444,1.444,0,0,1,.888,1.837l-2.32,6.66a1.444,1.444,0,0,1-1.837.888Z" transform="translate(-102.5 -101.159)" fill="#ff7260"/>
    <path id="Path_55" data-name="Path 55" d="M858.3,661.841l-6.66-2.32a1.444,1.444,0,0,1-.888-1.837l2.32-6.66a1.444,1.444,0,0,1,1.837-.888l6.66,2.32a1.444,1.444,0,0,1,.888,1.837l-2.32,6.66A1.444,1.444,0,0,1,858.3,661.841Z" transform="translate(-102.5 -101.159)" fill="#ccc"/>
    <path id="Path_56" data-name="Path 56" d="M915.074,639.181l-32.09-11.176a1.443,1.443,0,0,1,.949-2.725l32.09,11.176a1.443,1.443,0,1,1-.949,2.725Z" transform="translate(-102.5 -101.159)" fill="#ccc"/>
    <path id="Path_57" data-name="Path 57" d="M909.065,656.437l-32.09-11.176a1.443,1.443,0,0,1,.949-2.725l32.09,11.176a1.443,1.443,0,1,1-.949,2.725Z" transform="translate(-102.5 -101.159)" fill="#ccc"/>
    <path id="Path_58" data-name="Path 58" d="M903.055,673.693l-32.09-11.176a1.443,1.443,0,1,1,.949-2.725L904,670.968a1.443,1.443,0,1,1-.949,2.725Z" transform="translate(-102.5 -101.159)" fill="#ccc"/>
    <path id="Path_59" data-name="Path 59" d="M988.454,683.043c.234-.561.454-1.131.656-1.712a30.238,30.238,0,0,0-18.611-38.5l-10.548,30.286Z" transform="translate(-102.5 -101.159)" fill="#3ebfbb"/>
    <path id="Path_60" data-name="Path 60" d="M956.884,674.959l10.548-30.287a30.239,30.239,0,1,0,17.955,40.213Z" transform="translate(-102.5 -101.159)" fill="#ff7260"/>
    <path id="Path_61" data-name="Path 61" d="M994.645,631.512a10.056,10.056,0,0,1,10.979-10.826l14.873-32.492,9.841,15.748-15.633,28.441a10.11,10.11,0,0,1-20.061-.87Z" transform="translate(-102.5 -101.159)" fill="#ffb8b8"/>
    <path id="Path_62" data-name="Path 62" d="M1020.39,620.069a4.506,4.506,0,0,1-2.564-.8l-7.022-4.861a4.515,4.515,0,0,1-1.788-4.852l8.255-31.18-9.979-57.893a14.5,14.5,0,0,1,28.993-.14l8.177,36.123a46.373,46.373,0,0,1-4.456,32.339l-15.655,28.909a4.505,4.505,0,0,1-2.911,2.233A4.449,4.449,0,0,1,1020.39,620.069Z" transform="translate(-102.5 -101.159)" fill="#3f3d56"/>
    <path id="Path_64" data-name="Path 64" d="M490.541,685.239H502.8l5.832-47.287H490.539Z" fill="#a0616a"/>
    <path id="Path_65" data-name="Path 65" d="M589.914,782.4h24.145a15.386,15.386,0,0,1,15.387,15.387v.5H589.915Z" transform="translate(-102.5 -101.159)" fill="#2f2e41"/>
    <path id="Path_66" data-name="Path 66" d="M441.541,685.239H453.8l5.832-47.287H441.539Z" fill="#a0616a"/>
    <path id="Path_67" data-name="Path 67" d="M540.914,782.4h24.145a15.386,15.386,0,0,1,15.387,15.387v.5H540.915Z" transform="translate(-102.5 -101.159)" fill="#2f2e41"/>
    <circle id="Ellipse_113" data-name="Ellipse 113" cx="24.561" cy="24.561" r="24.561" transform="translate(468.427 308.736)" fill="#a0616a"/>
    <path id="Path_68" data-name="Path 68" d="M612.005,776.192H589.254a4.5,4.5,0,0,1-4.5-4.555l1.322-108.031a1.5,1.5,0,0,0-2.989-.2l-13.241,108.83a4.5,4.5,0,0,1-4.467,3.956H542.41a4.5,4.5,0,0,1-4.486-4.851l15.167-194.075.412-.045,72.629-7.844L616.5,771.906A4.5,4.5,0,0,1,612.005,776.192Z" transform="translate(-102.5 -101.159)" fill="#2f2e41"/>
    <path id="Path_69" data-name="Path 69" d="M553.976,589.181a4.5,4.5,0,0,1-4.484-4.358c-.4-12.271-1.076-54.732,6.822-85.905a40.924,40.924,0,0,1,37.793-30.839h0A41.179,41.179,0,0,1,634.666,494.1c13.275,33.7,25.818,75.246,10.181,81.762-20.495,8.539-74.523,12.346-90.594,13.309Q554.113,589.181,553.976,589.181Z" transform="translate(-102.5 -101.159)" fill="#3f3d56"/>
    <path id="Path_70" data-name="Path 70" d="M647.847,409.632a10.522,10.522,0,0,0,1.246,1.093l-2.578,49.526-10.724,5.491,6.17,17.268,19.93-7.875a8,8,0,0,0,5.026-8.181l-5.221-56.18a10.5,10.5,0,1,0-13.849-1.143Z" transform="translate(-102.5 -101.159)" fill="#a0616a"/>
    <path id="Path_71" data-name="Path 71" d="M646.718,462.1l7.544,21.439a4.5,4.5,0,0,1-3.389,5.912l-22.245,4.308a12.5,12.5,0,0,1-8.228-23.6l19.974-10.543a4.5,4.5,0,0,1,6.344,2.486Z" transform="translate(-102.5 -101.159)" fill="#3f3d56"/>
    <path id="Path_72" data-name="Path 72" d="M541.46,409.632a10.53,10.53,0,0,1-1.246,1.093l2.578,49.526,10.724,5.491-6.17,17.268-19.93-7.875a8,8,0,0,1-5.026-8.181l5.221-56.18a10.5,10.5,0,1,1,13.849-1.143Z" transform="translate(-102.5 -101.159)" fill="#a0616a"/>
    <path id="Path_73" data-name="Path 73" d="M545.192,459.4a4.5,4.5,0,0,1,3.741.21l19.974,10.543a12.5,12.5,0,0,1-8.228,23.6l-22.245-4.308a4.5,4.5,0,0,1-3.389-5.912l7.544-21.439A4.5,4.5,0,0,1,545.192,459.4Z" transform="translate(-102.5 -101.159)" fill="#3f3d56"/>
    <path id="Path_74" data-name="Path 74" d="M605.027,438.643a16.143,16.143,0,0,1,9.041-15.168c7.466-3.854,12.156-12.075,10.1-19.582-2.631-9.609-15.709-15.841-26.305-12.535A48.564,48.564,0,0,0,589.6,395.2l-6.923,3.711a71.736,71.736,0,0,0-8.534,5.038,28.315,28.315,0,0,0-11.27,26.53c1.363,9.769,7.761,18.727,16.518,24.861a27.937,27.937,0,0,0,11.319,5.031c4.2.692,8.87-.094,11.939-2.7,4.8-4.079,4.3-10.911,2.75-16.616a12.088,12.088,0,0,1-.373-2.4Z" transform="translate(-102.5 -101.159)" fill="#2f2e41"/>
    <path id="Path_76" data-name="Path 76" d="M378.41,616.413,221.633,680.73a10.984,10.984,0,0,1-14.315-5.986L159.326,557.76a8.047,8.047,0,0,1,4.386-10.488l162.077-66.492a8.186,8.186,0,0,1,10.669,4.462L384.4,602.1a10.984,10.984,0,0,1-5.986,14.315Z" transform="translate(-102.5 -101.159)" fill="#363943"/>
    <path id="Path_77" data-name="Path 77" d="M227.311,666.541,364.4,610.3a10.639,10.639,0,0,0,5.805-13.881l-38.753-94.463a10.639,10.639,0,0,0-13.881-5.805L180.482,552.392a10.639,10.639,0,0,0-5.805,13.881l38.753,94.463a10.639,10.639,0,0,0,13.881,5.8Z" transform="translate(-102.5 -101.159)" fill="#363943"/>
    <rect id="Rectangle_19" data-name="Rectangle 19" width="2.179" height="0.363" transform="translate(226.18 427.384) rotate(-22.306)" fill="#e6e6e6"/>
    <path id="Path_78" data-name="Path 78" d="M324.747,530.551l-4.072,1.67-.138-.336,4.072-1.67Zm-8.144,3.341-4.072,1.67-.138-.336,4.072-1.67Zm-8.144,3.341-4.072,1.67-.138-.336,4.072-1.67Zm-8.144,3.341-4.072,1.67-.138-.336,4.072-1.67Zm-8.144,3.341-4.072,1.67-.138-.336,4.072-1.67Zm-8.144,3.341-4.072,1.67-.138-.336,4.072-1.67Zm-8.144,3.341-4.072,1.67-.138-.336,4.072-1.67Zm-8.144,3.341-4.072,1.67-.138-.336,4.072-1.67Zm-8.144,3.341-4.072,1.67-.138-.336,4.072-1.67Zm-8.144,3.341-4.072,1.67-.138-.336,4.072-1.67Zm-8.143,3.34-4.072,1.67-.138-.336,4.072-1.67Zm-8.144,3.341-4.072,1.67-.138-.336,4.072-1.67Zm-8.144,3.341-4.072,1.67-.138-.336,4.072-1.67Zm-8.144,3.341-4.072,1.67-.138-.336,4.072-1.67Zm-8.144,3.341-4.072,1.67-.138-.336,4.072-1.67Zm-8.144,3.341-4.072,1.67-.138-.336,4.072-1.67Z" transform="translate(-102.5 -101.159)" fill="#e6e6e6"/>
    <rect id="Rectangle_20" data-name="Rectangle 20" width="2.179" height="0.363" transform="translate(89.798 483.335) rotate(-22.306)" fill="#e6e6e6"/>
    <rect id="Rectangle_21" data-name="Rectangle 21" width="2.179" height="0.363" transform="translate(172.821 485.772) rotate(-22.306)" fill="#e6e6e6"/>
    <path id="Path_79" data-name="Path 79" d="M271.448,588.915l-4.011,1.646-.138-.336,4.011-1.646Zm-8.023,3.291-4.011,1.646-.138-.336,4.011-1.646ZM255.4,595.5l-4.011,1.646-.138-.336,4.011-1.646Zm-8.023,3.292-4.011,1.646-.138-.336,4.011-1.646Zm-8.023,3.291-4.011,1.646-.138-.336,4.011-1.646Zm-8.023,3.291-4.011,1.646-.138-.336,4.011-1.646Zm-8.023,3.291-4.011,1.646-.138-.336,4.011-1.646Zm-8.023,3.291-4.011,1.646-.138-.336,4.011-1.646Z" transform="translate(-102.5 -101.159)" fill="#e6e6e6"/>
    <rect id="Rectangle_22" data-name="Rectangle 22" width="2.179" height="0.363" transform="translate(102.614 514.576) rotate(-22.306)" fill="#e6e6e6"/>
    <rect id="Rectangle_23" data-name="Rectangle 23" width="2.179" height="0.363" transform="translate(139.583 516.677) rotate(-22.306)" fill="#e6e6e6"/>
    <path id="Path_80" data-name="Path 80" d="M238.093,619.867l-4.127,1.693-.138-.336,4.127-1.693Zm-8.254,3.386-4.127,1.693-.138-.336,4.127-1.693Zm-8.254,3.386-4.127,1.693L217.32,628l4.127-1.693Z" transform="translate(-102.5 -101.159)" fill="#e6e6e6"/>
    <rect id="Rectangle_24" data-name="Rectangle 24" width="2.179" height="0.363" transform="translate(108.678 529.355) rotate(-22.306)" fill="#e6e6e6"/>
    <rect id="Rectangle_25" data-name="Rectangle 25" width="2.179" height="0.363" transform="translate(149.93 541.901) rotate(-22.306)" fill="#e6e6e6"/>
    <path id="Path_81" data-name="Path 81" d="M248.441,645.09l-4.127,1.693-.138-.336,4.127-1.693Zm-8.254,3.386-4.127,1.693-.138-.336,4.127-1.693Zm-8.254,3.386-4.127,1.693-.138-.336,4.127-1.693Z" transform="translate(-102.5 -101.159)" fill="#e6e6e6"/>
    <rect id="Rectangle_26" data-name="Rectangle 26" width="2.179" height="0.363" transform="translate(119.026 554.579) rotate(-22.306)" fill="#e6e6e6"/>
    <path id="Path_82" data-name="Path 82" d="M233.132,651.671l116.175-47.66a11.481,11.481,0,0,0,6.257-14.963l-23.472-57.215-.227.1L303.356,600.1l-21.145-8.84a2.742,2.742,0,0,0-2.435.152,2.922,2.922,0,0,0-1.212,1.433l-14.941,35.722-15.46-6.462a2.753,2.753,0,0,0-3.6,1.478C244.461,623.825,234.928,647.213,233.132,651.671Z" transform="translate(-102.5 -101.159)" fill="#ff7260"/>
    <path id="Path_83" data-name="Path 83" d="M232.775,652.21l-.335-.14,11.955-28.586a3.089,3.089,0,0,1,4.038-1.657l15.154,6.338,14.856-35.525a3.089,3.089,0,0,1,4.038-1.657l20.839,8.715,28.656-68.523.335.14-28.8,68.859-21.174-8.855a2.723,2.723,0,0,0-3.563,1.462l-15,35.86-15.489-6.478a2.726,2.726,0,0,0-3.563,1.462Z" transform="translate(-102.5 -101.159)" fill="#3f3d56"/>
    <circle id="Ellipse_114" data-name="Ellipse 114" cx="2.542" cy="2.542" r="2.542" transform="translate(139.125 513.477)" fill="#3f3d56"/>
    <circle id="Ellipse_115" data-name="Ellipse 115" cx="2.542" cy="2.542" r="2.542" transform="translate(172.364 482.573)" fill="#3f3d56"/>
    <circle id="Ellipse_116" data-name="Ellipse 116" cx="2.542" cy="2.542" r="2.542" transform="translate(224.12 424.094)" fill="#3f3d56"/>
    <path id="Path_84" data-name="Path 84" d="M186.9,614.295a10.095,10.095,0,0,0,3.61-15.053l7.549-73.8H181.746l-6,72.066A10.15,10.15,0,0,0,186.9,614.295Z" transform="translate(-102.5 -101.159)" fill="#ffb8b8"/>
    <circle id="Ellipse_117" data-name="Ellipse 117" cx="23.08" cy="23.08" r="23.08" transform="translate(76.299 337.388)" fill="#ffb8b8"/>
    <path id="Path_85" data-name="Path 85" d="M206.225,568.419a4.221,4.221,0,0,1-4.068-3.1c-1.849-6.718-6.66-18.077-14.3-33.763a27.967,27.967,0,0,1,15.882-38.613h0a27.955,27.955,0,0,1,35.922,17.808c5.921,18.563,5.635,38.447,5.237,46.133a4.239,4.239,0,0,1-3.321,3.914l-34.446,7.522a4.207,4.207,0,0,1-.907.1Z" transform="translate(-102.5 -101.159)" fill="#ff6584"/>
    <path id="Path_86" data-name="Path 86" d="M137.082,686.425H148.6l5.481-44.437h-17Z" fill="#ffb8b8"/>
    <path id="Path_87" data-name="Path 87" d="M237.113,784.293h36.208v13.989H251.1a13.989,13.989,0,0,1-13.989-13.989h0Z" transform="translate(407.97 1481.403) rotate(179.997)" fill="#2f2e41"/>
    <path id="Path_88" data-name="Path 88" d="M21.882,671.495l10.1,5.55,26.212-36.3-14.9-8.192Z" fill="#ffb8b8"/>
    <path id="Path_89" data-name="Path 89" d="M118.2,776.437H154.4v13.989H132.185A13.989,13.989,0,0,1,118.2,776.437h0Z" transform="translate(-224.194 1434.457) rotate(-151.199)" fill="#2f2e41"/>
    <path id="Path_90" data-name="Path 90" d="M239.044,762.92a4.228,4.228,0,0,1-4.189-3.685L220.446,648.211a2.349,2.349,0,0,0-4.387-.832l-60.045,108.94a4.252,4.252,0,0,1-5.209,1.911l-13.089-4.986a4.228,4.228,0,0,1-2.411-5.545l41.6-102.181a3.259,3.259,0,0,0,.212-.809c5.634-43.605,19.968-65.78,24.227-71.538a3.275,3.275,0,0,0,.466-2.982l-.585-1.756a4.226,4.226,0,0,1,.814-4.113c15.347-17.48,42.1-7.942,42.364-7.843l.134.05.084.115c29.993,41.133,18.9,174.732,16.376,201.1a4.217,4.217,0,0,1-3.885,3.806l-17.736,1.366C239.262,762.917,239.152,762.92,239.044,762.92Z" transform="translate(-102.5 -101.159)" fill="#2f2e41"/>
    <path id="Path_91" data-name="Path 91" d="M291.606,488.437a9.891,9.891,0,0,0-.225,1.541l-40.367,23.288-9.812-5.648-10.46,13.694L247.14,533a7.518,7.518,0,0,0,9.019-.22l41.625-32.839a9.864,9.864,0,1,0-6.179-11.5Z" transform="translate(-102.5 -101.159)" fill="#ffb8b8"/>
    <path id="Path_92" data-name="Path 92" d="M249.665,514.369l-13.047,16.909a4.229,4.229,0,0,1-6.394.35l-14.77-15.337a11.744,11.744,0,0,1,14.4-18.554L248.382,508.1a4.229,4.229,0,0,1,1.283,6.273Z" transform="translate(-102.5 -101.159)" fill="#ff6584"/>
    <path id="Path_93" data-name="Path 93" d="M199.1,543.746l-21.017-3.795a4.229,4.229,0,0,1-3.255-5.514l6.813-20.173a11.744,11.744,0,1,1,23.1,4.241l-.665,21.213a4.229,4.229,0,0,1-4.978,4.028Z" transform="translate(-102.5 -101.159)" fill="#ff6584"/>
    <path id="Path_94" data-name="Path 94" d="M205.533,456.318c5.932,4.06,13.721,8.233,19.78,3.91a11.025,11.025,0,0,0,3.618-12.709c-2.9-8.3-10.872-11.949-18.494-14.748-9.909-3.64-20.7-6.535-30.927-3.928s-19.269,12.51-17.423,22.9c1.485,8.358,9.369,15.312,8.25,23.727-1.126,8.469-10.65,12.926-19.059,14.44s-17.817,2-23.86,8.039c-7.708,7.7-5.784,21.475,1.47,29.61s18.2,11.822,28.805,14.328c14.053,3.321,29.252,5.067,42.6-.445s23.733-20.349,19.867-34.261c-1.633-5.877-5.48-10.843-9.2-15.678s-7.483-9.891-8.9-15.823c-1.182-4.944-.307-10.683,2.971-14.391a4.169,4.169,0,0,0,.559-4.874Z" transform="translate(-102.5 -101.159)" fill="#2f2e41"/>
  </g>
</svg>
